#!OML:ASF I:\Actors\actors\Patient Classification 1\Patient 1\Session 1\Subject1.ASF
:FULLY-SPECIFIED
:DEGREES
865
root -0.0823565 17.8206 8.10855 23.8968 -0.472234 -9.15872
lowerback 18.2939 1.4719 4.40439
upperback 6.58485 2.83368 4.24275
thorax -3.16502 1.37219 1.42201
lowerneck 0.915126 -4.40258 -1.18434
upperneck 8.46918 -7.58239 22.0399
head 3.22893 -3.19428 6.79188
rclavicle 1.78906e-015 -2.62396e-014
rhumerus -79.7573 45.3475 -94.1449
rradius 122.335
rwrist -40.2279
rhand 102.102 453.266
rfingers 7.12502
rthumb 66.4611 -2.21934
lclavicle 1.78906e-015 -2.62396e-014
lhumerus 57.5261 22.0623 10.3789
lradius 126.306
lwrist 66.4038
lhand -19.1449 -11.3204
lfingers 7.12502
lthumb 7.1653 18.5383
rfemur -25.5536 19.5403 19.2278
rtibia 7.52806
rfoot -10.0297 -23.2769
rtoes 2.29102
lfemur -204.66 232.684 -166.201
ltibia -2.20361
lfoot 130.947 -118.573
ltoes 27.9079
866
root -0.0702974 17.8078 8.10159 23.5609 0.184621 -9.99014
lowerback 18.6286 1.3065 5.69091
upperback 6.65633 2.87637 4.57599
thorax -3.20867 1.39781 1.03957
lowerneck 0.930332 -4.53877 -1.29572
upperneck 8.41509 -7.76504 22.17
head 3.24207 -3.28732 6.84646
rclavicle 7.55382e-015 1.94809e-014
rhumerus -79.8605 44.9628 -94.12
rradius 122.396
rwrist -40.6998
rhand 78.1133 453.334
rfingers 7.12502
rthumb 69.1174 -4.97359
lclavicle 7.55382e-015 1.94809e-014
lhumerus 56.8408 21.664 10.4045
lradius 126.258
lwrist 66.7778
lhand -19.3264 -11.3731
lfingers 7.12502
lthumb 6.99013 18.4915
rfemur -25.0143 19.2585 20.5693
rtibia 7.45448
rfoot -10.0333 -23.159
rtoes 1.96568
lfemur -203.979 232.023 -165.886
ltibia -2.37912
lfoot 133.504 -118.734
ltoes 26.6356
867
root -0.0630252 17.7981 8.09646 23.3172 0.608786 -10.3719
lowerback 18.7925 1.18694 6.38772
upperback 6.74249 2.85973 4.75975
thorax -3.1716 1.39419 0.846989
lowerneck 1.10573 -4.70702 -1.37009
upperneck 8.10347 -7.92335 22.187
head 3.1424 -3.39978 6.86071
rclavicle -1.74931e-014 -4.73108e-014
rhumerus -79.766 44.7007 -94.0901
rradius 122.258
rwrist -41.2028
rhand 77.8268 453.207
rfingers 7.12502
rthumb 69.3131 -5.39771
lclavicle -1.74931e-014 -4.73108e-014
lhumerus 56.0788 21.2196 10.2803
lradius 126.139
lwrist 67.0027
lhand -19.5464 -11.1772
lfingers 7.12502
lthumb 6.77769 18.6944
rfemur -24.7095 19.0629 21.2454
rtibia 7.50481
rfoot -10.1017 -23.1279
rtoes 1.98528
lfemur -203.506 231.275 -165.996
ltibia -2.43574
lfoot 136.106 -118.998
ltoes 25.3748
868
root -0.0634309 17.7936 8.09418 23.2368 0.742209 -10.3132
lowerback 18.7933 1.13746 6.44607
upperback 6.80705 2.80121 4.76015
thorax -3.10091 1.36862 0.828074
lowerneck 1.33574 -4.86029 -1.47381
upperneck 7.76273 -8.05062 22.1649
head 3.0202 -3.5048 6.87046
rclavicle 1.63003e-014 8.74653e-015
rhumerus -79.4572 44.6121 -94.0305
rradius 122.039
rwrist -41.5673
rhand 77.8816 453.341
rfingers 7.12502
rthumb 69.2758 -5.4254
lclavicle 1.63003e-014 8.74653e-015
lhumerus 55.3272 20.8538 9.99804
lradius 126.164
lwrist 66.9685
lhand -20.068 -11.1131
lfingers 7.12502
lthumb 6.27419 18.774
rfemur -24.6942 19.062 21.2155
rtibia 7.63452
rfoot -10.1854 -23.2577
rtoes 2.20087
lfemur -203.44 230.989 -166.188
ltibia -2.40677
lfoot 137.131 -119.156
ltoes 24.9257
869
root -0.066315 17.7904 8.0925 23.1971 0.726608 -10.2763
lowerback 18.7848 1.10235 6.45286
upperback 6.86505 2.74631 4.65979
thorax -3.03016 1.34525 0.729951
lowerneck 1.4139 -4.97179 -1.62183
upperneck 7.63945 -8.18274 22.2545
head 2.99595 -3.58609 6.92161
rclavicle -4.13472e-014 -8.78628e-014
rhumerus -79.1515 44.7246 -94.0295
rradius 121.882
rwrist -41.6144
rhand 210.997 450.803
rfingers 7.12502
rthumb 66.7629 2.53009
lclavicle -4.13472e-014 -8.78628e-014
lhumerus 54.6607 20.7378 9.77328
lradius 126.502
lwrist 66.7171
lhand -20.9599 -11.2188
lfingers 7.12502
lthumb 5.41304 18.692
rfemur -24.7286 19.1109 21.18
rtibia 7.74747
rfoot -10.2169 -23.3248
rtoes 2.21873
lfemur -203.264 230.399 -166.523
ltibia -2.36398
lfoot 138.269 -119.484
ltoes 24.54
870
root -0.0701231 17.7889 8.09261 23.2005 0.597579 -10.3173
lowerback 18.7326 1.09666 6.45917
upperback 6.92103 2.72277 4.51674
thorax -2.93591 1.33815 0.581357
lowerneck 1.38352 -5.05549 -1.77649
upperneck 7.62437 -8.30529 22.3486
head 3.02235 -3.64839 6.97303
rclavicle -3.02153e-014 -4.49253e-014
rhumerus -78.9733 45.0332 -94.0807
rradius 121.824
rwrist -41.4587
rhand 255.85 454.297
rfingers 7.12502
rthumb 66.3029 7.82051
lclavicle -3.02153e-014 -4.49253e-014
lhumerus 54.2301 20.8962 9.9011
lradius 127.103
lwrist 65.8934
lhand -21.8603 -11.7097
lfingers 7.12502
lthumb 4.54363 18.2215
rfemur -24.795 19.1852 21.2253
rtibia 7.82576
rfoot -10.1665 -23.3203
rtoes 1.84738
lfemur -202.941 229.366 -166.997
ltibia -2.31306
lfoot 140.002 -120.007
ltoes 23.9777
871
root -0.0734531 17.7889 8.09541 23.2159 0.367088 -10.3684
lowerback 18.6797 1.10355 6.3809
upperback 6.9646 2.70188 4.3753
thorax -2.8595 1.33085 0.481012
lowerneck 1.36122 -5.08642 -1.86002
upperneck 7.55355 -8.33212 22.2808
head 3.00924 -3.67015 6.96263
rclavicle 2.14687e-014 5.58585e-014
rhumerus -78.9297 45.4913 -94.2393
rradius 121.815
rwrist -41.2177
rhand 259.855 458.025
rfingers 7.12502
rthumb 67.5738 10.0562
lclavicle 2.14687e-014 5.58585e-014
lhumerus 53.9766 21.2092 10.4017
lradius 127.786
lwrist 64.339
lhand -22.6221 -12.4617
lfingers 7.12502
lthumb 3.80799 17.484
rfemur -24.8389 19.2969 21.2664
rtibia 7.86284
rfoot -10.0662 -23.2636
rtoes 1.45651
lfemur -202.587 228.641 -167.398
ltibia -2.32765
lfoot 140.993 -120.32
ltoes 23.6748
872
root -0.0804552 17.7947 8.10402 23.3617 -0.189132 -10.0067
lowerback 18.5012 1.18124 5.58166
upperback 6.95882 2.64078 4.17602
thorax -2.80858 1.29628 0.732322
lowerneck 1.36096 -5.02046 -2.03558
upperneck 7.42836 -8.21289 22.1663
head 2.95841 -3.6296 6.95933
rclavicle 1.66979e-014 3.35946e-014
rhumerus -79.0666 46.0569 -94.6457
rradius 121.734
rwrist -40.7143
rhand 257.088 461.878
rfingers 7.12502
rthumb 69.8084 8.21481
lclavicle 1.66979e-014 3.35946e-014
lhumerus 53.5907 21.6595 11.1539
lradius 128.466
lwrist 62.4242
lhand -22.8525 -13.0785
lfingers 7.12502
lthumb 3.58558 16.8711
rfemur -25.0641 19.5589 20.6478
rtibia 7.92297
rfoot -10.0819 -23.1886
rtoes 1.72237
lfemur -202.56 229.014 -167.786
ltibia -2.34986
lfoot 139.294 -120.076
ltoes 24.5131
873
root -0.0859398 17.8014 8.11249 23.4777 -0.809267 -9.64413
lowerback 18.3687 1.37561 4.91911
upperback 6.91613 2.7558 3.82824
thorax -2.8014 1.34961 0.71391
lowerneck 1.23155 -5.07523 -2.10614
upperneck 7.31445 -8.28886 22.3362
head 2.96785 -3.66687 7.01964
rclavicle -4.27387e-014 -5.18828e-014
rhumerus -78.9865 46.4554 -94.5498
rradius 121.884
rwrist -40.5794
rhand 256.943 633.473
rfingers 7.12502
rthumb 69.9035 -7.4325
lclavicle -4.27387e-014 -5.18828e-014
lhumerus 53.6744 22.1667 12.3026
lradius 129.209
lwrist 60.4125
lhand -22.7509 -13.474
lfingers 7.12502
lthumb 3.68362 16.4739
rfemur -25.2455 19.7871 20.0299
rtibia 7.94241
rfoot -10.0668 -23.0109
rtoes 2.08326
lfemur -202.518 229.632 -168.154
ltibia -2.35511
lfoot 136.994 -119.779
ltoes 25.602
